<svg width="30" height="30" viewBox="0 0 30 30" fill="none" xmlns="http://www.w3.org/2000/svg">
<path d="M26.5 1.5H4.625C2.90625 1.5 1.5 2.90625 1.5 4.625V26.5C1.5 28.2203 2.90625 29.625 4.625 29.625H15.5625V18.6875H12.4375V14.8203H15.5625V11.6172C15.5625 8.23594 17.4563 5.86094 21.4469 5.86094L24.2641 5.86406V9.93437H22.3937C20.8406 9.93437 20.25 11.1 20.25 12.1812V14.8219H24.2625L23.375 18.6875H20.25V29.625H26.5C28.2188 29.625 29.625 28.2203 29.625 26.5V4.625C29.625 2.90625 28.2188 1.5 26.5 1.5Z" fill="#F6CD8B"/>
</svg>
