<svg width="30" height="30" viewBox="0 0 30 30" fill="none" xmlns="http://www.w3.org/2000/svg">
<path d="M26.5 1.5H4.625C2.90625 1.5 1.5 2.90625 1.5 4.625V26.5C1.5 28.2203 2.90625 29.625 4.625 29.625H26.5C28.2188 29.625 29.625 28.2203 29.625 26.5V4.625C29.625 2.90625 28.2188 1.5 26.5 1.5ZM15.5375 24.1922C17.8326 24.1918 20.0335 23.2798 21.6563 21.6567C23.279 20.0337 24.1906 17.8326 24.1906 15.5375C24.1906 15.0094 24.1234 14.5 24.0297 14H26.5V25.275C26.5 25.417 26.472 25.5576 26.4175 25.6887C26.363 25.8198 26.2832 25.9388 26.1826 26.039C26.082 26.1392 25.9626 26.2185 25.8312 26.2724C25.6999 26.3263 25.5592 26.3537 25.4172 26.3531H5.70781C5.56584 26.3537 5.42514 26.3263 5.29379 26.2724C5.16245 26.2185 5.04304 26.1392 4.94243 26.039C4.84182 25.9388 4.76199 25.8198 4.70751 25.6887C4.65304 25.5576 4.625 25.417 4.625 25.275V14H7.04531C6.95 14.5 6.88281 15.0094 6.88281 15.5375C6.88323 17.8327 7.79519 20.0339 9.41817 21.6568C11.0411 23.2798 13.2423 24.1918 15.5375 24.1922ZM10.1297 15.5375C10.1297 14.8273 10.2696 14.1241 10.5413 13.468C10.8131 12.8119 11.2114 12.2158 11.7136 11.7136C12.2158 11.2114 12.8119 10.8131 13.468 10.5413C14.1241 10.2696 14.8273 10.1297 15.5375 10.1297C16.2477 10.1297 16.9509 10.2696 17.607 10.5413C18.2631 10.8131 18.8592 11.2114 19.3614 11.7136C19.8636 12.2158 20.2619 12.8119 20.5337 13.468C20.8054 14.1241 20.9453 14.8273 20.9453 15.5375C20.9453 16.9717 20.3756 18.3472 19.3614 19.3614C18.3472 20.3756 16.9717 20.9453 15.5375 20.9453C14.1033 20.9453 12.7278 20.3756 11.7136 19.3614C10.6994 18.3472 10.1297 16.9717 10.1297 15.5375ZM25.4172 9.3125H22.8938C22.6072 9.31168 22.3327 9.19749 22.1301 8.9949C21.9275 8.7923 21.8133 8.51776 21.8125 8.23125V5.70469C21.8125 5.10781 22.2969 4.625 22.8922 4.625H25.4156C26.0156 4.625 26.5 5.10781 26.5 5.70469V8.22969C26.5 8.825 26.0156 9.3125 25.4172 9.3125Z" fill="#F6CD8B"/>
</svg>
