<svg width="32" height="32" viewBox="0 0 32 32" fill="none" xmlns="http://www.w3.org/2000/svg">
<path fill-rule="evenodd" clip-rule="evenodd" d="M16 31C17.9698 31 19.9204 30.612 21.7403 29.8582C23.5601 29.1044 25.2137 27.9995 26.6066 26.6066C27.9995 25.2137 29.1044 23.5601 29.8582 21.7403C30.612 19.9204 31 17.9698 31 16C31 14.0302 30.612 12.0796 29.8582 10.2597C29.1044 8.43986 27.9995 6.78628 26.6066 5.3934C25.2137 4.00052 23.5601 2.89563 21.7403 2.14181C19.9204 1.38799 17.9698 1 16 1C12.0218 1 8.20644 2.58035 5.3934 5.3934C2.58035 8.20644 1 12.0218 1 16C1 19.9782 2.58035 23.7936 5.3934 26.6066C8.20644 29.4196 12.0218 31 16 31ZM20.6767 26.6917C22.6185 25.8414 24.2922 24.4784 25.5181 22.749C26.744 21.0195 27.4758 18.9889 27.635 16.875C26.2633 17.6233 24.5333 18.2367 22.5617 18.6633C22.3133 21.78 21.6383 24.5633 20.6767 26.6917ZM11.325 5.30833C9.70617 6.01801 8.2693 7.08543 7.12239 8.43037C5.97549 9.7753 5.14841 11.3627 4.70333 13.0733C5.09 13.44 5.74667 13.89 6.74667 14.335C7.49667 14.6683 8.36833 14.9667 9.34167 15.2167C9.43167 11.3433 10.1717 7.85833 11.325 5.30833ZM12.835 19.185C13.095 21.6133 13.6417 23.7017 14.3317 25.2517C14.8217 26.355 15.32 27.0417 15.7033 27.4067C15.84 27.5367 15.9367 27.6067 16 27.64C16.1075 27.5739 16.2071 27.4956 16.2967 27.4067C16.68 27.04 17.1783 26.3567 17.6683 25.2533C18.3583 23.7 18.905 21.6133 19.165 19.185C17.0598 19.3855 14.9402 19.3855 12.835 19.185ZM9.43833 18.6633C9.68667 21.78 10.3617 24.5633 11.3233 26.6917C9.38146 25.8414 7.70776 24.4784 6.48187 22.749C5.25599 21.0195 4.52418 18.9889 4.365 16.875C5.73667 17.6233 7.46667 18.2367 9.43833 18.6633ZM19.3333 15.8167C17.1179 16.0622 14.8821 16.0622 12.6667 15.8167C12.69 12.1067 13.3717 8.90833 14.3333 6.74667C14.8217 5.645 15.32 4.95833 15.7033 4.59333C15.793 4.50444 15.8925 4.42615 16 4.36C16.1075 4.42615 16.207 4.50444 16.2967 4.59333C16.68 4.96 17.1783 5.64333 17.6683 6.74667C18.6283 8.90833 19.3117 12.1067 19.3333 15.8167ZM22.6583 15.2167C22.57 11.3433 21.8283 7.85833 20.675 5.30833C22.2938 6.01801 23.7307 7.08543 24.8776 8.43037C26.0245 9.7753 26.8516 11.3627 27.2967 13.0733C26.91 13.44 26.2533 13.89 25.2533 14.335C24.5033 14.6683 23.6317 14.9667 22.6583 15.2167Z" fill="#452D42"/>
</svg>
