<svg width="30" height="30" viewBox="0 0 30 30" fill="none" xmlns="http://www.w3.org/2000/svg">
<g clip-path="url(#clip0_1205_957)">
<path fill-rule="evenodd" clip-rule="evenodd" d="M15 30C16.9698 30 18.9204 29.612 20.7403 28.8582C22.5601 28.1044 24.2137 26.9995 25.6066 25.6066C26.9995 24.2137 28.1044 22.5601 28.8582 20.7403C29.612 18.9204 30 16.9698 30 15C30 13.0302 29.612 11.0796 28.8582 9.25975C28.1044 7.43986 26.9995 5.78628 25.6066 4.3934C24.2137 3.00052 22.5601 1.89563 20.7403 1.14181C18.9204 0.387986 16.9698 -2.93527e-08 15 0C11.0218 5.92805e-08 7.20644 1.58035 4.3934 4.3934C1.58035 7.20644 0 11.0218 0 15C0 18.9782 1.58035 22.7936 4.3934 25.6066C7.20644 28.4196 11.0218 30 15 30V30ZM19.6767 25.6917C21.6185 24.8414 23.2922 23.4784 24.5181 21.749C25.744 20.0195 26.4758 17.9889 26.635 15.875C25.2633 16.6233 23.5333 17.2367 21.5617 17.6633C21.3133 20.78 20.6383 23.5633 19.6767 25.6917ZM10.325 4.30833C8.70617 5.01801 7.2693 6.08543 6.12239 7.43037C4.97549 8.7753 4.14841 10.3627 3.70333 12.0733C4.09 12.44 4.74667 12.89 5.74667 13.335C6.49667 13.6683 7.36833 13.9667 8.34167 14.2167C8.43167 10.3433 9.17167 6.85833 10.325 4.30833V4.30833ZM11.835 18.185C12.095 20.6133 12.6417 22.7017 13.3317 24.2517C13.8217 25.355 14.32 26.0417 14.7033 26.4067C14.84 26.5367 14.9367 26.6067 15 26.64C15.1075 26.5739 15.2071 26.4956 15.2967 26.4067C15.68 26.04 16.1783 25.3567 16.6683 24.2533C17.3583 22.7 17.905 20.6133 18.165 18.185C16.0598 18.3855 13.9402 18.3855 11.835 18.185V18.185ZM8.43833 17.6633C8.68667 20.78 9.36167 23.5633 10.3233 25.6917C8.38146 24.8414 6.70776 23.4784 5.48187 21.749C4.25599 20.0195 3.52418 17.9889 3.365 15.875C4.73667 16.6233 6.46667 17.2367 8.43833 17.6633V17.6633ZM18.3333 14.8167C16.1179 15.0622 13.8821 15.0622 11.6667 14.8167C11.69 11.1067 12.3717 7.90833 13.3333 5.74667C13.8217 4.645 14.32 3.95833 14.7033 3.59333C14.793 3.50444 14.8925 3.42615 15 3.36C15.1075 3.42615 15.207 3.50444 15.2967 3.59333C15.68 3.96 16.1783 4.64333 16.6683 5.74667C17.6283 7.90833 18.3117 11.1067 18.3333 14.8167V14.8167ZM21.6583 14.2167C21.57 10.3433 20.8283 6.85833 19.675 4.30833C21.2938 5.01801 22.7307 6.08543 23.8776 7.43037C25.0245 8.7753 25.8516 10.3627 26.2967 12.0733C25.91 12.44 25.2533 12.89 24.2533 13.335C23.5033 13.6683 22.6317 13.9667 21.6583 14.2167V14.2167Z" fill="#452D42"/>
</g>
<defs>
<clipPath id="clip0_1205_957">
<rect width="30" height="30" fill="white"/>
</clipPath>
</defs>
</svg>
