<svg width="120" height="110" viewBox="0 0 120 110" fill="none" xmlns="http://www.w3.org/2000/svg">
<g clip-path="url(#clip0_1205_921)">
<path d="M51.9081 39.5352C45.6674 47.8794 49.5782 61.3524 60.6431 69.6279C71.708 77.9034 85.737 77.8477 91.9777 69.5034C98.2183 61.1592 94.3075 47.6863 83.2426 39.4108C72.1777 31.1353 58.1488 31.191 51.9081 39.5352Z" fill="#F7EDE4"/>
<path d="M39.306 40.7902C34.3135 47.4656 37.4422 58.2439 46.2941 64.8643C55.146 71.4847 66.3691 71.4401 71.3616 64.7648C76.3541 58.0894 73.2255 47.3111 64.3736 40.6907C55.5217 34.0703 44.2986 34.1149 39.306 40.7902Z" fill="#F6CD8B"/>
<path d="M7.41644 37.2009C2.21589 44.1544 5.47491 55.3819 14.6957 62.2781C23.9164 69.1744 35.6072 69.1279 40.8078 62.1745C46.0083 55.221 42.7493 43.9935 33.5285 37.0973C24.3078 30.201 12.617 30.2474 7.41644 37.2009Z" fill="#452D42"/>
<path d="M26.7038 42.0452C22.9594 47.0517 25.3059 55.1355 31.9448 60.1008C38.5838 65.0661 47.0011 65.0327 50.7455 60.0262C54.49 55.0196 52.1435 46.9359 45.5045 41.9706C38.8656 37.0053 30.4482 37.0387 26.7038 42.0452Z" fill="#EF3900"/>
<g filter="url(#filter0_d_1205_921)">
<path d="M49.6875 20.1875C47.1458 20.3542 44.2083 20.6042 40.875 20.9375C40.4167 20.9375 40.125 20.8333 40 20.625C39.875 20.4167 39.7917 20.0625 39.75 19.5625L38.875 7.9375C38.9167 7.4375 39.0417 7.125 39.25 7C39.5 6.8333 39.875 6.7083 40.375 6.625C44.5 6.5417 48.0833 6.4583 51.125 6.375C54.2083 6.2917 56.875 6.2292 59.125 6.1875C61.4167 6.1458 63.3542 6.125 64.9375 6.125C66.5625 6.0833 67.9583 6.0625 69.125 6.0625C70.3333 6.0208 71.3958 6 72.3125 6H74.9375C87.3542 6 96.5625 9.25 102.562 15.75C109.521 23.25 113 35.7083 113 53.125C113 69.5833 109.479 82.208 102.438 91C95.7292 99.292 86.4583 103.438 74.625 103.438C62.2083 103.438 50.875 102.917 40.625 101.875C39.9167 101.833 39.5417 101.333 39.5 100.375L40.25 89.312C40.3333 88.646 40.6667 88.25 41.25 88.125L48.0625 88.625L49.6875 20.1875ZM62.625 89.438C66.125 89.688 68.6667 89.812 70.25 89.812H74.25C82.7083 89.812 88.9167 86.875 92.875 81C96.875 75.125 98.875 66.3542 98.875 54.6875C98.875 35.3542 94.2292 23.9375 84.9375 20.4375C81.9375 19.3125 79.2292 18.75 76.8125 18.75C72.6458 18.75 68.1667 18.8958 63.375 19.1875L62.625 89.438Z" fill="black"/>
</g>
</g>
<defs>
<filter id="filter0_d_1205_921" x="30.875" y="6" width="82.125" height="97.438" filterUnits="userSpaceOnUse" color-interpolation-filters="sRGB">
<feFlood flood-opacity="0" result="BackgroundImageFix"/>
<feColorMatrix in="SourceAlpha" type="matrix" values="0 0 0 0 0 0 0 0 0 0 0 0 0 0 0 0 0 0 127 0" result="hardAlpha"/>
<feOffset dx="-8"/>
<feComposite in2="hardAlpha" operator="out"/>
<feColorMatrix type="matrix" values="0 0 0 0 0 0 0 0 0 0 0 0 0 0 0 0 0 0 0.5 0"/>
<feBlend mode="normal" in2="BackgroundImageFix" result="effect1_dropShadow_1205_921"/>
<feBlend mode="normal" in="SourceGraphic" in2="effect1_dropShadow_1205_921" result="shape"/>
</filter>
<clipPath id="clip0_1205_921">
<rect width="120" height="110" fill="white"/>
</clipPath>
</defs>
</svg>
